<svg width="1200" height="260" viewBox="0 0 1200 260" xmlns="http://www.w3.org/2000/svg">
  <rect width="1200" height="260" fill="#ffffff"/>
  <rect x="1" y="1" width="1198" height="258" fill="none" stroke="#d4d4d4" stroke-width="1"/>

  <!-- shield icon -->
  <g transform="translate(90,80)">
    <path d="M50 0 L95 16 V50 C95 78 75 96 50 105 C25 96 5 78 5 50 V16 Z"
          fill="none" stroke="#222222" stroke-width="3"/>
    <path d="M32 50 L45 63 L72 32" fill="none" stroke="#222222" stroke-width="4"
          stroke-linecap="round" stroke-linejoin="round"/>
  </g>

  <!-- title -->
  <text x="230" y="115" font-family="Helvetica, Arial, sans-serif" font-size="38" font-weight="700" fill="#1a1a1a">
    AI Privacy &amp; Compliance Gateway
  </text>
  <text x="230" y="148" font-family="Helvetica, Arial, sans-serif" font-size="17" fill="#5a5a5a">
    Middleware that masks sensitive data before it reaches an LLM
  </text>

  <!-- plain outlined tags -->
  <g font-family="Helvetica, Arial, sans-serif" font-size="13" fill="#333333" font-weight="500">
    <rect x="232" y="170" width="108" height="28" rx="4" fill="none" stroke="#bbbbbb"/>
    <text x="248" y="188">PII Masking</text>

    <rect x="350" y="170" width="128" height="28" rx="4" fill="none" stroke="#bbbbbb"/>
    <text x="366" y="188">Gemini Powered</text>

    <rect x="488" y="170" width="118" height="28" rx="4" fill="none" stroke="#bbbbbb"/>
    <text x="504" y="188">Audit Logged</text>

    <rect x="616" y="170" width="140" height="28" rx="4" fill="none" stroke="#bbbbbb"/>
    <text x="632" y="188">HIPAA-Inspired</text>
  </g>
</svg>
